<mxfile host="Electron" modified="2024-07-01T17:42:41.089Z" agent="Mozilla/5.0 (Windows NT 10.0; Win64; x64) AppleWebKit/537.36 (KHTML, like Gecko) draw.io/24.6.4 Chrome/124.0.6367.207 Electron/30.0.6 Safari/537.36" etag="BHczHCPzB8syY61lAvIf" version="24.6.4" type="device">
  <diagram name="Page-1" id="MCgHLBGWYcQACLyCspIH">
    <mxGraphModel dx="863" dy="513" grid="1" gridSize="10" guides="1" tooltips="1" connect="1" arrows="1" fold="1" page="1" pageScale="1" pageWidth="850" pageHeight="1100" math="0" shadow="0">
      <root>
        <mxCell id="0" />
        <mxCell id="1" parent="0" />
        <mxCell id="a5V0x82BR82WZuIxq8tf-48" value="" style="rounded=1;whiteSpace=wrap;html=1;strokeColor=#666666;fillColor=none;fillOpacity=100;arcSize=0;fontColor=#333333;" vertex="1" parent="1">
          <mxGeometry y="160" width="200" height="160" as="geometry" />
        </mxCell>
        <mxCell id="a5V0x82BR82WZuIxq8tf-47" value="" style="rounded=1;whiteSpace=wrap;html=1;strokeColor=#666666;fillColor=none;fillOpacity=100;arcSize=0;fontColor=#333333;" vertex="1" parent="1">
          <mxGeometry x="200" y="160" width="200" height="160" as="geometry" />
        </mxCell>
        <mxCell id="a5V0x82BR82WZuIxq8tf-4" value="Reaction Network" style="text;html=1;align=center;verticalAlign=middle;whiteSpace=wrap;rounded=0;fontStyle=1" vertex="1" parent="1">
          <mxGeometry x="40" y="130" width="120" height="30" as="geometry" />
        </mxCell>
        <mxCell id="a5V0x82BR82WZuIxq8tf-7" value="Reaction" style="ellipse;whiteSpace=wrap;html=1;" vertex="1" parent="1">
          <mxGeometry x="40" y="210" width="80" height="40" as="geometry" />
        </mxCell>
        <mxCell id="a5V0x82BR82WZuIxq8tf-8" value="Chemical" style="rounded=1;whiteSpace=wrap;html=1;" vertex="1" parent="1">
          <mxGeometry x="10" y="170" width="60" height="20" as="geometry" />
        </mxCell>
        <mxCell id="a5V0x82BR82WZuIxq8tf-9" value="Chemical" style="rounded=1;whiteSpace=wrap;html=1;" vertex="1" parent="1">
          <mxGeometry x="90" y="165" width="60" height="20" as="geometry" />
        </mxCell>
        <mxCell id="a5V0x82BR82WZuIxq8tf-10" value="Chemical" style="rounded=1;whiteSpace=wrap;html=1;" vertex="1" parent="1">
          <mxGeometry x="10" y="270" width="60" height="20" as="geometry" />
        </mxCell>
        <mxCell id="a5V0x82BR82WZuIxq8tf-11" value="Reaction" style="ellipse;whiteSpace=wrap;html=1;" vertex="1" parent="1">
          <mxGeometry x="100" y="275" width="80" height="40" as="geometry" />
        </mxCell>
        <mxCell id="a5V0x82BR82WZuIxq8tf-12" value="Chemical" style="rounded=1;whiteSpace=wrap;html=1;" vertex="1" parent="1">
          <mxGeometry x="130" y="220" width="60" height="20" as="geometry" />
        </mxCell>
        <mxCell id="a5V0x82BR82WZuIxq8tf-18" value="" style="endArrow=classic;html=1;rounded=0;exitX=0.5;exitY=1;exitDx=0;exitDy=0;" edge="1" parent="1" source="a5V0x82BR82WZuIxq8tf-8" target="a5V0x82BR82WZuIxq8tf-7">
          <mxGeometry width="50" height="50" relative="1" as="geometry">
            <mxPoint x="400" y="310" as="sourcePoint" />
            <mxPoint x="450" y="260" as="targetPoint" />
          </mxGeometry>
        </mxCell>
        <mxCell id="a5V0x82BR82WZuIxq8tf-19" value="" style="endArrow=classic;html=1;rounded=0;exitX=0.5;exitY=1;exitDx=0;exitDy=0;entryX=0.5;entryY=0;entryDx=0;entryDy=0;" edge="1" parent="1" source="a5V0x82BR82WZuIxq8tf-9" target="a5V0x82BR82WZuIxq8tf-7">
          <mxGeometry width="50" height="50" relative="1" as="geometry">
            <mxPoint x="250" y="250" as="sourcePoint" />
            <mxPoint x="300" y="200" as="targetPoint" />
          </mxGeometry>
        </mxCell>
        <mxCell id="a5V0x82BR82WZuIxq8tf-21" value="" style="endArrow=classic;html=1;rounded=0;exitX=0;exitY=1;exitDx=0;exitDy=0;entryX=0.5;entryY=0;entryDx=0;entryDy=0;" edge="1" parent="1" source="a5V0x82BR82WZuIxq8tf-7" target="a5V0x82BR82WZuIxq8tf-10">
          <mxGeometry width="50" height="50" relative="1" as="geometry">
            <mxPoint x="250" y="250" as="sourcePoint" />
            <mxPoint x="300" y="200" as="targetPoint" />
          </mxGeometry>
        </mxCell>
        <mxCell id="a5V0x82BR82WZuIxq8tf-22" value="" style="endArrow=classic;html=1;rounded=0;exitX=0.5;exitY=1;exitDx=0;exitDy=0;entryX=0.5;entryY=0;entryDx=0;entryDy=0;" edge="1" parent="1" source="a5V0x82BR82WZuIxq8tf-12" target="a5V0x82BR82WZuIxq8tf-11">
          <mxGeometry width="50" height="50" relative="1" as="geometry">
            <mxPoint x="250" y="250" as="sourcePoint" />
            <mxPoint x="300" y="200" as="targetPoint" />
          </mxGeometry>
        </mxCell>
        <mxCell id="a5V0x82BR82WZuIxq8tf-24" value="" style="endArrow=classic;html=1;rounded=0;exitX=1;exitY=0.5;exitDx=0;exitDy=0;entryX=0;entryY=0.5;entryDx=0;entryDy=0;" edge="1" parent="1" source="a5V0x82BR82WZuIxq8tf-10" target="a5V0x82BR82WZuIxq8tf-11">
          <mxGeometry width="50" height="50" relative="1" as="geometry">
            <mxPoint x="260" y="240" as="sourcePoint" />
            <mxPoint x="310" y="190" as="targetPoint" />
          </mxGeometry>
        </mxCell>
        <mxCell id="a5V0x82BR82WZuIxq8tf-26" value="" style="rounded=1;whiteSpace=wrap;html=1;strokeColor=#666666;fillColor=#f5f5f5;fillOpacity=20;arcSize=0;fontColor=#333333;" vertex="1" parent="1">
          <mxGeometry x="400" y="160" width="200" height="160" as="geometry" />
        </mxCell>
        <mxCell id="a5V0x82BR82WZuIxq8tf-27" value="Operation Network" style="text;html=1;align=center;verticalAlign=middle;whiteSpace=wrap;rounded=0;fontStyle=1" vertex="1" parent="1">
          <mxGeometry x="235" y="130" width="130" height="30" as="geometry" />
        </mxCell>
        <mxCell id="a5V0x82BR82WZuIxq8tf-28" value="Optimal Schedule" style="text;html=1;align=center;verticalAlign=middle;whiteSpace=wrap;rounded=0;fontStyle=1" vertex="1" parent="1">
          <mxGeometry x="447.5" y="130" width="105" height="30" as="geometry" />
        </mxCell>
        <mxCell id="a5V0x82BR82WZuIxq8tf-39" value="precedes" style="edgeStyle=orthogonalEdgeStyle;rounded=0;orthogonalLoop=1;jettySize=auto;html=1;entryX=0.5;entryY=0;entryDx=0;entryDy=0;" edge="1" parent="1" target="a5V0x82BR82WZuIxq8tf-31">
          <mxGeometry relative="1" as="geometry">
            <mxPoint x="276.000027210909" y="235.02857142857135" as="sourcePoint" />
            <Array as="points">
              <mxPoint x="231" y="235" />
            </Array>
          </mxGeometry>
        </mxCell>
        <mxCell id="a5V0x82BR82WZuIxq8tf-42" value="precedes" style="edgeStyle=orthogonalEdgeStyle;rounded=0;orthogonalLoop=1;jettySize=auto;html=1;entryX=0.5;entryY=0;entryDx=0;entryDy=0;" edge="1" parent="1" target="a5V0x82BR82WZuIxq8tf-34">
          <mxGeometry relative="1" as="geometry">
            <mxPoint x="291" y="250" as="sourcePoint" />
            <Array as="points">
              <mxPoint x="291" y="265" />
              <mxPoint x="291" y="265" />
            </Array>
            <mxPoint as="offset" />
          </mxGeometry>
        </mxCell>
        <mxCell id="a5V0x82BR82WZuIxq8tf-30" value="" style="ellipse;whiteSpace=wrap;html=1;aspect=fixed;fillColor=#f8cecc;strokeColor=#b85450;" vertex="1" parent="1">
          <mxGeometry x="276" y="225" width="30" height="30" as="geometry" />
        </mxCell>
        <mxCell id="a5V0x82BR82WZuIxq8tf-31" value="" style="ellipse;whiteSpace=wrap;html=1;aspect=fixed;fillColor=#fff2cc;strokeColor=#d6b656;" vertex="1" parent="1">
          <mxGeometry x="216" y="270" width="30" height="30" as="geometry" />
        </mxCell>
        <mxCell id="a5V0x82BR82WZuIxq8tf-43" value="&lt;font color=&quot;#0000ff&quot;&gt;precedes&amp;nbsp;&lt;/font&gt;&lt;div&gt;&lt;font color=&quot;#0000ff&quot;&gt;with&amp;nbsp;&lt;/font&gt;&lt;/div&gt;&lt;div&gt;&lt;font color=&quot;#0000ff&quot;&gt;maximum lag&lt;/font&gt;&lt;/div&gt;" style="edgeStyle=orthogonalEdgeStyle;rounded=0;orthogonalLoop=1;jettySize=auto;html=1;entryX=1;entryY=0.5;entryDx=0;entryDy=0;strokeColor=#0000FF;" edge="1" parent="1" source="a5V0x82BR82WZuIxq8tf-33" target="a5V0x82BR82WZuIxq8tf-34">
          <mxGeometry x="0.2067" relative="1" as="geometry">
            <Array as="points">
              <mxPoint x="361" y="180" />
              <mxPoint x="361" y="300" />
            </Array>
            <mxPoint as="offset" />
          </mxGeometry>
        </mxCell>
        <mxCell id="a5V0x82BR82WZuIxq8tf-33" value="" style="ellipse;whiteSpace=wrap;html=1;aspect=fixed;fillColor=#dae8fc;strokeColor=#6c8ebf;" vertex="1" parent="1">
          <mxGeometry x="216" y="165" width="30" height="30" as="geometry" />
        </mxCell>
        <mxCell id="a5V0x82BR82WZuIxq8tf-34" value="" style="ellipse;whiteSpace=wrap;html=1;aspect=fixed;fillColor=#e1d5e7;strokeColor=#9673a6;" vertex="1" parent="1">
          <mxGeometry x="276" y="285" width="30" height="30" as="geometry" />
        </mxCell>
        <mxCell id="a5V0x82BR82WZuIxq8tf-46" value="precedes" style="endArrow=classic;html=1;rounded=0;exitX=1;exitY=1;exitDx=0;exitDy=0;entryX=0.5;entryY=0;entryDx=0;entryDy=0;" edge="1" parent="1" source="a5V0x82BR82WZuIxq8tf-33" target="a5V0x82BR82WZuIxq8tf-30">
          <mxGeometry width="50" height="50" relative="1" as="geometry">
            <mxPoint x="286" y="280" as="sourcePoint" />
            <mxPoint x="336" y="230" as="targetPoint" />
          </mxGeometry>
        </mxCell>
        <mxCell id="a5V0x82BR82WZuIxq8tf-59" value="" style="group" vertex="1" connectable="0" parent="1">
          <mxGeometry x="410" y="170" width="180" height="150" as="geometry" />
        </mxCell>
        <mxCell id="a5V0x82BR82WZuIxq8tf-52" value="" style="rounded=1;whiteSpace=wrap;html=1;fillColor=#e1d5e7;strokeColor=#9673a6;" vertex="1" parent="a5V0x82BR82WZuIxq8tf-59">
          <mxGeometry x="130" y="100" width="44" height="10" as="geometry" />
        </mxCell>
        <mxCell id="a5V0x82BR82WZuIxq8tf-53" value="" style="endArrow=classic;html=1;rounded=0;" edge="1" parent="a5V0x82BR82WZuIxq8tf-59">
          <mxGeometry width="50" height="50" relative="1" as="geometry">
            <mxPoint x="40" y="120" as="sourcePoint" />
            <mxPoint x="180" y="120" as="targetPoint" />
          </mxGeometry>
        </mxCell>
        <mxCell id="a5V0x82BR82WZuIxq8tf-54" value="Time" style="text;html=1;align=center;verticalAlign=middle;whiteSpace=wrap;rounded=0;" vertex="1" parent="a5V0x82BR82WZuIxq8tf-59">
          <mxGeometry x="70" y="120" width="60" height="30" as="geometry" />
        </mxCell>
        <mxCell id="a5V0x82BR82WZuIxq8tf-55" value="Operation-to-module&lt;div&gt;assignment&lt;/div&gt;" style="text;html=1;align=center;verticalAlign=middle;whiteSpace=wrap;rounded=0;rotation=-90;" vertex="1" parent="a5V0x82BR82WZuIxq8tf-59">
          <mxGeometry x="-50" y="50" width="130" height="30" as="geometry" />
        </mxCell>
        <mxCell id="a5V0x82BR82WZuIxq8tf-56" value="" style="rounded=1;whiteSpace=wrap;html=1;fillColor=#fff2cc;strokeColor=#d6b656;" vertex="1" parent="a5V0x82BR82WZuIxq8tf-59">
          <mxGeometry x="51" y="70" width="114" height="10" as="geometry" />
        </mxCell>
        <mxCell id="a5V0x82BR82WZuIxq8tf-57" value="" style="rounded=1;whiteSpace=wrap;html=1;fillColor=#dae8fc;strokeColor=#6c8ebf;" vertex="1" parent="a5V0x82BR82WZuIxq8tf-59">
          <mxGeometry x="46" y="10" width="67" height="10" as="geometry" />
        </mxCell>
        <mxCell id="a5V0x82BR82WZuIxq8tf-58" value="" style="rounded=1;whiteSpace=wrap;html=1;fillColor=#f8cecc;strokeColor=#b85450;" vertex="1" parent="a5V0x82BR82WZuIxq8tf-59">
          <mxGeometry x="76" y="40" width="67" height="10" as="geometry" />
        </mxCell>
        <mxCell id="a5V0x82BR82WZuIxq8tf-61" value="" style="endArrow=none;html=1;rounded=0;strokeColor=#0000FF;" edge="1" parent="a5V0x82BR82WZuIxq8tf-59">
          <mxGeometry width="50" height="50" relative="1" as="geometry">
            <mxPoint x="113" y="120" as="sourcePoint" />
            <mxPoint x="113" as="targetPoint" />
          </mxGeometry>
        </mxCell>
        <mxCell id="a5V0x82BR82WZuIxq8tf-62" value="" style="endArrow=none;html=1;rounded=0;strokeColor=#0000FF;" edge="1" parent="a5V0x82BR82WZuIxq8tf-59">
          <mxGeometry width="50" height="50" relative="1" as="geometry">
            <mxPoint x="151.8" y="120" as="sourcePoint" />
            <mxPoint x="151.8" as="targetPoint" />
          </mxGeometry>
        </mxCell>
      </root>
    </mxGraphModel>
  </diagram>
</mxfile>
